<?xml version="1.0" encoding="UTF-8" standalone="no"?>
<!-- Created with Inkscape (http://www.inkscape.org/) -->

<svg
   xmlns:dc="http://purl.org/dc/elements/1.1/"
   xmlns:cc="http://creativecommons.org/ns#"
   xmlns:rdf="http://www.w3.org/1999/02/22-rdf-syntax-ns#"
   xmlns:svg="http://www.w3.org/2000/svg"
   xmlns="http://www.w3.org/2000/svg"
   xmlns:xlink="http://www.w3.org/1999/xlink"
   version="1.1"
   width="100%"
   height="100%"
   viewBox="0 0 128 128"
   id="svg3049">
  <defs
     id="defs3051">
    <linearGradient
       x1="791.12482"
       y1="159.45061"
       x2="439.74969"
       y2="426.20889"
       id="linearGradient192"
       gradientUnits="userSpaceOnUse"
       gradientTransform="translate(-359.06759,166.54981)">
      <stop
         id="stop119"
         style="stop-color:#3333ff;stop-opacity:1"
         offset="0" />
      <stop
         id="stop121"
         style="stop-color:#3f3fff;stop-opacity:0"
         offset="1" />
    </linearGradient>
    <linearGradient
       x1="791.12482"
       y1="159.45061"
       x2="439.74969"
       y2="426.20889"
       id="linearGradient3995"
       xlink:href="#linearGradient192"
       gradientUnits="userSpaceOnUse"
       gradientTransform="matrix(1.0000002,0,0,1.008419,-359.0693,161.2316)" />
    <linearGradient
       x1="791.12482"
       y1="159.45061"
       x2="439.74969"
       y2="426.20889"
       id="linearGradient4052"
       xlink:href="#linearGradient192"
       gradientUnits="userSpaceOnUse"
       gradientTransform="matrix(1.0000002,0,0,1.008419,-359.0693,161.2316)" />
  </defs>
  <metadata
     id="metadata3054">
    <rdf:RDF>
      <cc:Work
         rdf:about="">
        <dc:format>image/svg+xml</dc:format>
        <dc:type
           rdf:resource="http://purl.org/dc/dcmitype/StillImage" />
        <dc:title></dc:title>
      </cc:Work>
    </rdf:RDF>
  </metadata>
  <g
     transform="translate(-272.50514,-271.44241)"
     id="layer1">
    <g
       transform="matrix(0.3339737,0,0,0.3339737,225.57628,215.36596)"
       id="g4024">
      <path
         d="m 516.75517,407.79186 c -11.9148,115.29255 -133.54962,119.85433 -366.32807,120.74446 -4.3017,-1.07739 -1.9344,-3.62224 -0.6148,-37.5757 76.01182,-37.60274 133.98531,-111.86197 149.76131,-224.67007 38.01485,48.4366 209.08791,101.64436 217.18156,141.50131 z"
         id="VectorGradient"
         style="fill:url(#linearGradient4052)" />
      <path
         d="m 300.89046,456.98158 0,-62.9921 23.78151,0.18526 c -1.01071,62.01043 93.82965,73.66896 135.34797,48.63366 21.39466,-17.68446 26.47671,-50.88676 7.65143,-68.82816 -43.56465,-31.30185 -114.53709,-27.60061 -152.4086,-61.88052 -28.43794,-34.30742 -20.3125,-81.88909 14.00153,-106.62013 62.3482,-27.99971 118.29727,-16.21777 175.94066,-0.46645 l 0,58.91613 -23.36791,0 c -4.5044,-41.38896 -45.45216,-53.54182 -81.72722,-53.78619 -48.7379,4.03554 -86.70694,42.55806 -49.79503,76.20394 45.89821,30.30514 115.79725,26.6203 152.51203,61.41722 27.88629,32.04282 13.76265,87.2734 -17.42335,110.23291 -66.02953,28.1242 -124.40468,19.60169 -184.51291,-1.01576 z"
         id="VectorLarge"
         style="fill:#00005f" />
      <use
         transform="matrix(0.1489017,0,0,0.16997699,102.13138,449.60417)"
         id="VectorSmall"
         x="0"
         y="0"
         width="915.19501"
         height="585.14453"
         xlink:href="#VectorLarge" />
      <g
         transform="matrix(1.0000002,0,0,1.008419,10.482851,-9.9443759)"
         id="g3174">
        <g
           transform="matrix(0.18693704,0,0,0.18693704,115.02619,168.39942)"
           id="layer1-0">
          <g
             transform="matrix(4.675013,0,0,4.675013,-1353.75,-678.4329)"
             id="_189263792"
             style="fill-rule:evenodd">
            <rect
               width="136.42599"
               height="136.42599"
               x="315.48599"
               y="180.991"
               id="_151141056"
               style="fill:#ff9900" />
            <rect
               width="68.215401"
               height="68.003899"
               x="383.69699"
               y="249.205"
               id="_151140504"
               style="fill:#de8500" />
            <rect
               width="68.215401"
               height="68.215401"
               x="315.487"
               y="180.99001"
               id="_151140120"
               style="fill:#ffb13b" />
            <g
               id="g107">
              <circle
                 cx="340.75699"
                 cy="249.099"
                 r="25.0634"
                 id="_151139416"
                 style="fill:#ff9900" />
              <circle
                 cx="0"
                 cy="0"
                 r="1658.51"
                 transform="matrix(0.0106858,0.0106858,-0.0106858,0.0106858,353.365,218.661)"
                 id="_151137016"
                 style="fill:#ff9900" />
              <circle
                 cx="0"
                 cy="0"
                 r="1658.51"
                 transform="matrix(0,0.015112,-0.015112,0,383.803,206.053)"
                 id="_151136448"
                 style="fill:#ff9900" />
              <circle
                 cx="0"
                 cy="0"
                 r="1658.51"
                 transform="matrix(-0.0106858,0.0106858,-0.0106858,-0.0106858,414.241,218.661)"
                 id="_151135880"
                 style="fill:#ff9900" />
              <circle
                 cx="426.849"
                 cy="249.099"
                 r="25.0634"
                 id="_151135312"
                 style="fill:#ff9900" />
              <circle
                 cx="0"
                 cy="0"
                 r="1658.51"
                 transform="matrix(-0.0106858,-0.0106858,0.0106858,-0.0106858,414.241,279.538)"
                 id="_151134744"
                 style="fill:#ff9900" />
              <circle
                 cx="0"
                 cy="0"
                 r="1658.51"
                 transform="matrix(0,-0.015112,0.015112,0,383.803,292.146)"
                 id="_151134176"
                 style="fill:#ff9900" />
              <circle
                 cx="0"
                 cy="0"
                 r="1658.51"
                 transform="matrix(0.0106858,-0.0106858,0.0106858,0.0106858,353.365,279.538)"
                 id="_151038344"
                 style="fill:#ff9900" />
            </g>
            <path
               d="m 401.634,206.051 c 0,-9.84433 -7.98625,-17.8306 -17.8306,-17.8306 -9.84433,0 -17.8306,7.98625 -17.8306,17.8306 -6.96405,-6.95901 -18.2536,-6.95901 -25.2176,0 -6.95901,6.96405 -6.95901,18.2536 0,25.2176 -9.84433,0 -17.8306,7.98625 -17.8306,17.8306 0,9.84433 7.98625,17.8306 17.8306,17.8306 -6.95901,6.96405 -6.95901,18.2536 0,25.2176 6.96405,6.95901 18.2536,6.95901 25.2176,0 0,9.84433 7.98625,17.8306 17.8306,17.8306 9.84433,0 17.8306,-7.98625 17.8306,-17.8306 6.96405,6.95901 18.2536,6.95901 25.2176,0 6.95901,-6.96405 6.95901,-18.2536 0,-25.2176 9.84433,0 17.8255,-7.98625 17.8255,-17.8306 0,-9.84433 -7.98121,-17.8306 -17.8255,-17.8306 6.95901,-6.96405 6.95901,-18.2536 0,-25.2176 -6.96405,-6.95901 -18.2536,-6.95901 -25.2176,0 z"
               id="_151038768"
               style="fill:#000000" />
            <path
               d="m 390.626,212.879 0,19.7441 13.9633,-13.9633 c 0,-2.46738 0.94163,-4.93979 2.8249,-6.82305 3.77156,-3.77156 9.88462,-3.77156 13.6511,0 3.77156,3.76653 3.77156,9.87958 0,13.6511 -1.88326,1.88326 -4.35568,2.8249 -6.82305,2.8249 l -13.9633,13.9633 19.7441,0 c 1.74731,-1.74731 4.15929,-2.82993 6.82809,-2.82993 5.32752,0 9.64795,4.32546 9.64795,9.65298 0,5.32752 -4.32043,9.65298 -9.64795,9.65298 -2.6688,0 -5.08078,-1.08262 -6.82809,-2.82993 l -19.7441,0 13.9633,13.9633 c 2.46738,0 4.93979,0.94163 6.82305,2.8249 3.77156,3.77156 3.77156,9.88462 0,13.6511 -3.76653,3.77156 -9.87958,3.77156 -13.6511,0 -1.88326,-1.88326 -2.8249,-4.35568 -2.8249,-6.82305 l -13.9633,-13.9633 0,19.7441 c 1.74731,1.74731 2.82993,4.15929 2.82993,6.82809 0,5.32752 -4.32546,9.64795 -9.65298,9.64795 -5.32752,0 -9.65298,-4.32043 -9.65298,-9.64795 0,-2.6688 1.08262,-5.08078 2.82993,-6.82809 l 0,-19.7441 -13.9633,13.9633 c 0,2.46738 -0.94163,4.93979 -2.8249,6.82305 -3.77156,3.77156 -9.88462,3.77156 -13.6511,0 -3.77156,-3.76653 -3.77156,-9.87958 0,-13.6511 1.88326,-1.88326 4.35568,-2.8249 6.82305,-2.8249 l 13.9633,-13.9633 -19.7441,0 c -1.74731,1.74731 -4.15929,2.82993 -6.82809,2.82993 -5.32752,0 -9.64795,-4.32546 -9.64795,-9.65298 0,-5.32752 4.32043,-9.65298 9.64795,-9.65298 2.6688,0 5.08078,1.08262 6.82809,2.82993 l 19.7441,0 -13.9633,-13.9633 c -2.46738,0 -4.93979,-0.94163 -6.82305,-2.8249 -3.77156,-3.77156 -3.77156,-9.88462 0,-13.6511 3.76653,-3.77156 9.87958,-3.77156 13.6511,0 1.88326,1.88326 2.8249,4.35568 2.8249,6.82305 l 13.9633,13.9633 0,-19.7441 c -1.74731,-1.74731 -2.82993,-4.15929 -2.82993,-6.82809 0,-5.32752 4.32546,-9.64795 9.65298,-9.64795 5.32752,0 9.65298,4.32043 9.65298,9.64795 0,2.6688 -1.08262,5.08078 -2.82993,6.82809 z"
               id="_151037224"
               style="fill:#ffffff" />
            <rect
               width="121.742"
               height="60.770401"
               x="322.92899"
               y="249.203"
               id="_151036536"
               style="fill:#000000" />
            <rect
               width="121.742"
               height="26.6689"
               x="322.92899"
               y="283.30499"
               id="_151035984"
               style="fill:#000000" />
            <path
               d="m 335.689,254.84 97.2147,0 c 3.98305,0 7.23596,3.25291 7.23596,7.23596 l 0,24.4069 c -37.5696,-4.64773 -74.8169,-11.073 -111.687,-10.4788 l 0,-13.9281 c 0,-3.98305 3.25291,-7.23596 7.23596,-7.23596 l 3.8e-4,0 z"
               id="_151164400"
               style="fill:#3f3f3f" />
            <polygon
               points="388.355,307.481 379.04,307.481 367.795,253.198 377.111,253.198 383.697,284.992 390.279,253.198 399.594,253.198 399.594,253.198 "
               id="_151164136"
               style="fill:#ffffff;stroke:#000000;stroke-width:0.503546" />
            <path
               d="m 415.496,275.682 15.902,0 0,15.897 0,0 c 0,8.78185 -7.12015,15.902 -15.897,15.902 -8.78185,0 -15.902,-7.12015 -15.902,-15.902 l 0,0 0,-22.4833 -0.005,0 c 0,-8.77681 7.12015,-15.897 15.902,-15.897 8.78185,0 15.902,7.12015 15.902,15.897 l -9.31561,0 c 0,-3.63561 -2.95078,-6.58135 -6.58639,-6.58135 -3.63561,0 -6.58135,2.94575 -6.58135,6.58135 l 0,22.4833 0,0 c 0,3.63561 2.94575,6.58639 6.58135,6.58639 3.63561,0 6.58639,-2.95078 6.58639,-6.58135 l 0,-0.005 0,-6.58135 -6.58639,0 0,-9.31561 4e-5,-4e-5 z"
               id="_151163752"
               style="fill:#ffffff;stroke:#000000;stroke-width:0.503546" />
            <path
               d="m 340.654,280.339 c -2.87525,-2.88029 -4.6578,-6.85327 -4.6578,-11.2442 0,-8.78185 7.12015,-15.897 15.902,-15.897 8.77681,0 15.897,7.11511 15.897,15.897 l -9.31057,0 c 0,-3.63561 -2.95078,-6.58639 -6.58639,-6.58639 -3.63561,0 -6.58639,2.95078 -6.58639,6.58639 0,1.8178 0.73518,3.45936 1.92355,4.65277 l 0.005,0 c 1.1934,1.1934 2.84,1.92858 4.6578,1.92858 l 0,0.005 c 4.39092,0 8.36391,1.77752 11.2392,4.6578 l 0,0 c 2.88029,2.87525 4.6578,6.85327 4.6578,11.2392 0,8.78185 -7.12015,15.902 -15.897,15.902 -8.78185,0 -15.902,-7.12015 -15.902,-15.902 l 9.31561,0 c 0,3.64064 2.95078,6.58639 6.58639,6.58639 3.63561,0 6.58639,-2.94575 6.58639,-6.58639 0,-1.81277 -0.73518,-3.45936 -1.92858,-4.65277 l 0,0 c -1.1934,-1.18837 -2.84,-1.92858 -4.6578,-1.92858 l 0,0 c -4.39092,0 -8.36391,-1.78255 -11.2442,-4.6578 l 0,0 -5e-5,-4e-5 z"
               id="_151162704"
               style="fill:#ffffff;stroke:#000000;stroke-width:0.503546" />
          </g>
        </g>
      </g>
    </g>
  </g>
</svg>
