<?xml version="1.0" encoding="UTF-8" standalone="no"?>
<!-- Created with Inkscape (http://www.inkscape.org/) -->

<svg
   xmlns:dc="http://purl.org/dc/elements/1.1/"
   xmlns:cc="http://creativecommons.org/ns#"
   xmlns:rdf="http://www.w3.org/1999/02/22-rdf-syntax-ns#"
   xmlns:svg="http://www.w3.org/2000/svg"
   xmlns="http://www.w3.org/2000/svg"
   version="1.1"
   width="100%"
   height="100%"
   viewBox="0 0 346 484"
   id="svg2">
  <defs
     id="defs4">
    <marker
       refX="0"
       refY="0"
       orient="auto"
       id="TriangleInL"
       style="overflow:visible">
      <path
         d="m 5.77,0 -8.65,5 0,-10 8.65,5 z"
         transform="scale(-0.8,-0.8)"
         id="path4006"
         style="fill-rule:evenodd;stroke:#000000;stroke-width:1pt;marker-start:none" />
    </marker>
    <marker
       refX="0"
       refY="0"
       orient="auto"
       id="Arrow2Lstart"
       style="overflow:visible">
      <path
         d="M 8.7185878,4.0337352 -2.2072895,0.01601326 8.7185884,-4.0017078 c -1.7454984,2.3720609 -1.7354408,5.6174519 -6e-7,8.035443 z"
         transform="matrix(1.1,0,0,1.1,1.1,0)"
         id="path3890"
         style="font-size:12px;fill-rule:evenodd;stroke-width:0.625;stroke-linejoin:round" />
    </marker>
    <marker
       refX="0"
       refY="0"
       orient="auto"
       id="Arrow1Mstart"
       style="overflow:visible">
      <path
         d="M 0,0 5,-5 -12.5,0 5,5 0,0 z"
         transform="matrix(0.4,0,0,0.4,4,0)"
         id="path3878"
         style="fill-rule:evenodd;stroke:#000000;stroke-width:1pt;marker-start:none" />
    </marker>
    <marker
       refX="0"
       refY="0"
       orient="auto"
       id="Arrow2Mend"
       style="overflow:visible">
      <path
         d="M 8.7185878,4.0337352 -2.2072895,0.01601326 8.7185884,-4.0017078 c -1.7454984,2.3720609 -1.7354408,5.6174519 -6e-7,8.035443 z"
         transform="scale(-0.6,-0.6)"
         id="path3899"
         style="font-size:12px;fill-rule:evenodd;stroke-width:0.625;stroke-linejoin:round" />
    </marker>
    <marker
       refX="0"
       refY="0"
       orient="auto"
       id="Arrow2Sstart"
       style="overflow:visible">
      <path
         d="M 8.7185878,4.0337352 -2.2072895,0.01601326 8.7185884,-4.0017078 c -1.7454984,2.3720609 -1.7354408,5.6174519 -6e-7,8.035443 z"
         transform="matrix(0.3,0,0,0.3,-0.69,0)"
         id="path3902"
         style="font-size:12px;fill-rule:evenodd;stroke-width:0.625;stroke-linejoin:round" />
    </marker>
    <marker
       refX="0"
       refY="0"
       orient="auto"
       id="Arrow2Mstart"
       style="overflow:visible">
      <path
         d="M 8.7185878,4.0337352 -2.2072895,0.01601326 8.7185884,-4.0017078 c -1.7454984,2.3720609 -1.7354408,5.6174519 -6e-7,8.035443 z"
         transform="scale(0.6,0.6)"
         id="path3896"
         style="font-size:12px;fill-rule:evenodd;stroke-width:0.625;stroke-linejoin:round" />
    </marker>
    <marker
       refX="0"
       refY="0"
       orient="auto"
       id="TriangleInM"
       style="overflow:visible">
      <path
         d="m 5.77,0 -8.65,5 0,-10 8.65,5 z"
         transform="scale(-0.4,-0.4)"
         id="path4009"
         style="fill-rule:evenodd;stroke:#000000;stroke-width:1pt;marker-start:none" />
    </marker>
    <marker
       refX="0"
       refY="0"
       orient="auto"
       id="Arrow2MstartQ"
       style="overflow:visible">
      <path
         d="M 8.7185878,4.0337352 -2.2072895,0.01601326 8.7185884,-4.0017078 c -1.7454984,2.3720609 -1.7354408,5.6174519 -6e-7,8.035443 z"
         transform="scale(0.6,0.6)"
         id="path6590"
         style="font-size:12px;fill:#5061ee;fill-rule:evenodd;stroke:#5061ee;stroke-width:0.625;stroke-linejoin:round" />
    </marker>
    <marker
       refX="0"
       refY="0"
       orient="auto"
       id="Arrow2Mendg"
       style="overflow:visible">
      <path
         d="M 8.7185878,4.0337352 -2.2072895,0.01601326 8.7185884,-4.0017078 c -1.7454984,2.3720609 -1.7354408,5.6174519 -6e-7,8.035443 z"
         transform="scale(-0.6,-0.6)"
         id="path6593"
         style="font-size:12px;fill:#5061ee;fill-rule:evenodd;stroke:#5061ee;stroke-width:0.625;stroke-linejoin:round" />
    </marker>
    <marker
       refX="0"
       refY="0"
       orient="auto"
       id="Arrow2Mstartp"
       style="overflow:visible">
      <path
         d="M 8.7185878,4.0337352 -2.2072895,0.01601326 8.7185884,-4.0017078 c -1.7454984,2.3720609 -1.7354408,5.6174519 -6e-7,8.035443 z"
         transform="scale(0.6,0.6)"
         id="path6763"
         style="font-size:12px;fill:#5061ee;fill-rule:evenodd;stroke:#5061ee;stroke-width:0.625;stroke-linejoin:round" />
    </marker>
    <marker
       refX="0"
       refY="0"
       orient="auto"
       id="Arrow2Mendb"
       style="overflow:visible">
      <path
         d="M 8.7185878,4.0337352 -2.2072895,0.01601326 8.7185884,-4.0017078 c -1.7454984,2.3720609 -1.7354408,5.6174519 -6e-7,8.035443 z"
         transform="scale(-0.6,-0.6)"
         id="path6766"
         style="font-size:12px;fill:#5061ee;fill-rule:evenodd;stroke:#5061ee;stroke-width:0.625;stroke-linejoin:round" />
    </marker>
    <marker
       refX="0"
       refY="0"
       orient="auto"
       id="Arrow2MstartF"
       style="overflow:visible">
      <path
         d="M 8.7185878,4.0337352 -2.2072895,0.01601326 8.7185884,-4.0017078 c -1.7454984,2.3720609 -1.7354408,5.6174519 -6e-7,8.035443 z"
         transform="scale(0.6,0.6)"
         id="path6769"
         style="font-size:12px;fill:#5061ee;fill-rule:evenodd;stroke:#5061ee;stroke-width:0.625;stroke-linejoin:round" />
    </marker>
    <marker
       refX="0"
       refY="0"
       orient="auto"
       id="Arrow2MendL"
       style="overflow:visible">
      <path
         d="M 8.7185878,4.0337352 -2.2072895,0.01601326 8.7185884,-4.0017078 c -1.7454984,2.3720609 -1.7354408,5.6174519 -6e-7,8.035443 z"
         transform="scale(-0.6,-0.6)"
         id="path6772"
         style="font-size:12px;fill:#5061ee;fill-rule:evenodd;stroke:#5061ee;stroke-width:0.625;stroke-linejoin:round" />
    </marker>
    <marker
       refX="0"
       refY="0"
       orient="auto"
       id="Arrow2Mstarth"
       style="overflow:visible">
      <path
         d="M 8.7185878,4.0337352 -2.2072895,0.01601326 8.7185884,-4.0017078 c -1.7454984,2.3720609 -1.7354408,5.6174519 -6e-7,8.035443 z"
         transform="scale(0.6,0.6)"
         id="path6775"
         style="font-size:12px;fill:#5061ee;fill-rule:evenodd;stroke:#5061ee;stroke-width:0.625;stroke-linejoin:round" />
    </marker>
    <marker
       refX="0"
       refY="0"
       orient="auto"
       id="Arrow2Mendj"
       style="overflow:visible">
      <path
         d="M 8.7185878,4.0337352 -2.2072895,0.01601326 8.7185884,-4.0017078 c -1.7454984,2.3720609 -1.7354408,5.6174519 -6e-7,8.035443 z"
         transform="scale(-0.6,-0.6)"
         id="path6778"
         style="font-size:12px;fill:#5061ee;fill-rule:evenodd;stroke:#5061ee;stroke-width:0.625;stroke-linejoin:round" />
    </marker>
    <marker
       refX="0"
       refY="0"
       orient="auto"
       id="Arrow2Mstartk"
       style="overflow:visible">
      <path
         d="M 8.7185878,4.0337352 -2.2072895,0.01601326 8.7185884,-4.0017078 c -1.7454984,2.3720609 -1.7354408,5.6174519 -6e-7,8.035443 z"
         transform="scale(0.6,0.6)"
         id="path6781"
         style="font-size:12px;fill:#5061ee;fill-rule:evenodd;stroke:#5061ee;stroke-width:0.625;stroke-linejoin:round" />
    </marker>
    <marker
       refX="0"
       refY="0"
       orient="auto"
       id="Arrow2Mendw"
       style="overflow:visible">
      <path
         d="M 8.7185878,4.0337352 -2.2072895,0.01601326 8.7185884,-4.0017078 c -1.7454984,2.3720609 -1.7354408,5.6174519 -6e-7,8.035443 z"
         transform="scale(-0.6,-0.6)"
         id="path6784"
         style="font-size:12px;fill:#5061ee;fill-rule:evenodd;stroke:#5061ee;stroke-width:0.625;stroke-linejoin:round" />
    </marker>
    <marker
       refX="0"
       refY="0"
       orient="auto"
       id="Arrow2MstartO"
       style="overflow:visible">
      <path
         d="M 8.7185878,4.0337352 -2.2072895,0.01601326 8.7185884,-4.0017078 c -1.7454984,2.3720609 -1.7354408,5.6174519 -6e-7,8.035443 z"
         transform="scale(0.6,0.6)"
         id="path6787"
         style="font-size:12px;fill:#5061ee;fill-rule:evenodd;stroke:#5061ee;stroke-width:0.625;stroke-linejoin:round" />
    </marker>
    <marker
       refX="0"
       refY="0"
       orient="auto"
       id="Arrow2Mendt"
       style="overflow:visible">
      <path
         d="M 8.7185878,4.0337352 -2.2072895,0.01601326 8.7185884,-4.0017078 c -1.7454984,2.3720609 -1.7354408,5.6174519 -6e-7,8.035443 z"
         transform="scale(-0.6,-0.6)"
         id="path6790"
         style="font-size:12px;fill:#5061ee;fill-rule:evenodd;stroke:#5061ee;stroke-width:0.625;stroke-linejoin:round" />
    </marker>
  </defs>
  <metadata
     id="metadata7">
    <rdf:RDF>
      <cc:Work
         rdf:about="">
        <dc:format>image/svg+xml</dc:format>
        <dc:type
           rdf:resource="http://purl.org/dc/dcmitype/StillImage" />
        <dc:title></dc:title>
      </cc:Work>
    </rdf:RDF>
  </metadata>
  <g
     transform="translate(-71,-86.362182)"
     id="layer1">
    <path
       d="m 130,143.36218 280,0 0,420 -280,0 z"
       id="path3833"
       style="fill:none;stroke:#000000;stroke-width:1px;stroke-linecap:butt;stroke-linejoin:miter;stroke-opacity:1" />
    <path
       d="m 130,353.36218 280,0"
       id="path3835"
       style="fill:none;stroke:#000000;stroke-width:1px;stroke-linecap:butt;stroke-linejoin:miter;stroke-opacity:1" />
    <path
       d="m 270,143.36218 0,210"
       id="path3837"
       style="fill:none;stroke:#000000;stroke-width:1px;stroke-linecap:butt;stroke-linejoin:miter;stroke-opacity:1" />
    <path
       d="m 200,143.36218 0,210"
       id="path3839"
       style="fill:none;stroke:#000000;stroke-width:1px;stroke-linecap:butt;stroke-linejoin:miter;stroke-opacity:1" />
    <path
       d="m 130,213.36218 70,0"
       id="path3851"
       style="fill:none;stroke:#000000;stroke-width:1px;stroke-linecap:butt;stroke-linejoin:miter;stroke-opacity:1" />
    <path
       d="m 130,283.36218 70,0"
       id="path3853"
       style="fill:none;stroke:#000000;stroke-width:1px;stroke-linecap:butt;stroke-linejoin:miter;stroke-opacity:1" />
    <path
       d="m 130,134.86218 70,0"
       id="path3867"
       style="fill:none;stroke:#5061ee;stroke-width:1;stroke-linecap:butt;stroke-linejoin:miter;stroke-miterlimit:4;stroke-opacity:1;stroke-dasharray:2, 1;stroke-dashoffset:0;marker-start:url(#Arrow2MstartF);marker-mid:none;marker-end:url(#Arrow2MendL)" />
    <path
       d="m 130,118.36218 140,0"
       id="path6021"
       style="fill:none;stroke:#5061ee;stroke-width:1;stroke-linecap:butt;stroke-linejoin:miter;stroke-miterlimit:4;stroke-opacity:1;stroke-dasharray:2, 1;stroke-dashoffset:0;marker-start:url(#Arrow2Mstartp);marker-end:url(#Arrow2Mendb)" />
    <path
       d="m 130,101.86218 280,0"
       id="path6023"
       style="fill:none;stroke:#5061ee;stroke-width:1;stroke-linecap:butt;stroke-linejoin:miter;stroke-miterlimit:4;stroke-opacity:1;stroke-dasharray:2, 1;stroke-dashoffset:0;marker-start:url(#Arrow2MstartQ);marker-end:url(#Arrow2Mendg)" />
    <path
       d="m 121.5,143.36218 0,70"
       id="path6025"
       style="fill:none;stroke:#5061ee;stroke-width:1;stroke-linecap:butt;stroke-linejoin:miter;stroke-miterlimit:4;stroke-opacity:1;stroke-dasharray:2, 1;stroke-dashoffset:0;marker-start:url(#Arrow2Mstartk);marker-end:url(#Arrow2Mendw)" />
    <path
       d="m 103.25,143.36218 0,210"
       id="path6029"
       style="fill:none;stroke:#5061ee;stroke-width:1;stroke-linecap:butt;stroke-linejoin:miter;stroke-miterlimit:4;stroke-opacity:1;stroke-dasharray:2, 1;stroke-dashoffset:0;marker-start:url(#Arrow2Mstarth);marker-end:url(#Arrow2Mendj)" />
    <path
       d="m 85,143.36218 0,420"
       id="path6031"
       style="fill:none;stroke:#5061ee;stroke-width:1;stroke-linecap:butt;stroke-linejoin:miter;stroke-miterlimit:4;stroke-opacity:1;stroke-dasharray:2, 1;stroke-dashoffset:0;marker-start:url(#Arrow2MstartO);marker-end:url(#Arrow2Mendt)" />
    <text
       x="155.58594"
       y="133.46992"
       id="text6425"
       xml:space="preserve"
       style="font-size:12px;font-style:normal;font-variant:normal;font-weight:normal;font-stretch:normal;text-align:start;line-height:125%;letter-spacing:0px;word-spacing:0px;writing-mode:lr-tb;text-anchor:start;fill:#5061ee;fill-opacity:1;stroke:none;font-family:Sans;-inkscape-font-specification:Sans"><tspan
         x="155.58594"
         y="133.46992"
         id="tspan6427"
         style="font-size:10px;font-style:normal;font-variant:normal;font-weight:normal;font-stretch:normal;text-align:start;line-height:125%;writing-mode:lr-tb;text-anchor:start;fill:#5061ee;fill-opacity:1;font-family:Sans;-inkscape-font-specification:Sans">222</tspan></text>
    <text
       x="190.48828"
       y="116.96992"
       id="text6425-4"
       xml:space="preserve"
       style="font-size:12px;font-style:normal;font-variant:normal;font-weight:normal;font-stretch:normal;text-align:start;line-height:125%;letter-spacing:0px;word-spacing:0px;writing-mode:lr-tb;text-anchor:start;fill:#5061ee;fill-opacity:1;stroke:none;font-family:Sans;-inkscape-font-specification:Sans"><tspan
         x="190.48828"
         y="116.96992"
         id="tspan6427-8"
         style="font-size:10px;font-style:normal;font-variant:normal;font-weight:normal;font-stretch:normal;text-align:start;line-height:125%;writing-mode:lr-tb;text-anchor:start;fill:#5061ee;fill-opacity:1;font-family:Sans;-inkscape-font-specification:Sans">444</tspan></text>
    <text
       x="260.46387"
       y="100.32832"
       id="text6425-4-5"
       xml:space="preserve"
       style="font-size:12px;font-style:normal;font-variant:normal;font-weight:normal;font-stretch:normal;text-align:start;line-height:125%;letter-spacing:0px;word-spacing:0px;writing-mode:lr-tb;text-anchor:start;fill:#5061ee;fill-opacity:1;stroke:none;font-family:Sans;-inkscape-font-specification:Sans"><tspan
         x="260.46387"
         y="100.32832"
         id="tspan6427-8-5"
         style="font-size:10px;font-style:normal;font-variant:normal;font-weight:normal;font-stretch:normal;text-align:start;line-height:125%;writing-mode:lr-tb;text-anchor:start;fill:#5061ee;fill-opacity:1;font-family:Sans;-inkscape-font-specification:Sans">889</tspan></text>
    <text
       x="-188.10828"
       y="119.96614"
       transform="matrix(0,-1,1,0,0,0)"
       id="text6425-4-5-1"
       xml:space="preserve"
       style="font-size:12px;font-style:normal;font-variant:normal;font-weight:normal;font-stretch:normal;text-align:start;line-height:125%;letter-spacing:0px;word-spacing:0px;writing-mode:lr-tb;text-anchor:start;fill:#5061ee;fill-opacity:1;stroke:none;font-family:Sans;-inkscape-font-specification:Sans"><tspan
         x="-188.10828"
         y="119.96614"
         id="tspan6427-8-5-1"
         style="font-size:10px;font-style:normal;font-variant:normal;font-weight:normal;font-stretch:normal;text-align:start;line-height:125%;writing-mode:lr-tb;text-anchor:start;fill:#5061ee;fill-opacity:1;font-family:Sans;-inkscape-font-specification:Sans">199</tspan></text>
    <text
       x="-257.86902"
       y="101.71614"
       transform="matrix(0,-1,1,0,0,0)"
       id="text6425-4-5-1-7"
       xml:space="preserve"
       style="font-size:12px;font-style:normal;font-variant:normal;font-weight:normal;font-stretch:normal;text-align:start;line-height:125%;letter-spacing:0px;word-spacing:0px;writing-mode:lr-tb;text-anchor:start;fill:#5061ee;fill-opacity:1;stroke:none;font-family:Sans;-inkscape-font-specification:Sans"><tspan
         x="-257.86902"
         y="101.71614"
         id="tspan6427-8-5-1-0"
         style="font-size:10px;font-style:normal;font-variant:normal;font-weight:normal;font-stretch:normal;text-align:start;line-height:125%;writing-mode:lr-tb;text-anchor:start;fill:#5061ee;fill-opacity:1;font-family:Sans;-inkscape-font-specification:Sans">597</tspan></text>
    <text
       x="-366.36267"
       y="83.466141"
       transform="matrix(0,-1,1,0,0,0)"
       id="text6425-4-5-1-0"
       xml:space="preserve"
       style="font-size:12px;font-style:normal;font-variant:normal;font-weight:normal;font-stretch:normal;text-align:start;line-height:125%;letter-spacing:0px;word-spacing:0px;writing-mode:lr-tb;text-anchor:start;fill:#5061ee;fill-opacity:1;stroke:none;font-family:Sans;-inkscape-font-specification:Sans"><tspan
         x="-366.36267"
         y="83.466141"
         id="tspan6427-8-5-1-9"
         style="font-size:10px;font-style:normal;font-variant:normal;font-weight:normal;font-stretch:normal;text-align:start;line-height:125%;writing-mode:lr-tb;text-anchor:start;fill:#5061ee;fill-opacity:1;font-family:Sans;-inkscape-font-specification:Sans">1194</tspan></text>
    <path
       d="m 130,143.36218 0,-51.499998"
       id="path7004"
       style="fill:none;stroke:#5061ee;stroke-width:1px;stroke-linecap:butt;stroke-linejoin:miter;stroke-opacity:1" />
    <path
       d="m 410,143.36218 0,-49.999998"
       id="path7006"
       style="fill:none;stroke:#5061ee;stroke-width:1px;stroke-linecap:butt;stroke-linejoin:miter;stroke-opacity:1" />
    <path
       d="m 270,143.36218 0,-31"
       id="path7008"
       style="fill:none;stroke:#5061ee;stroke-width:1px;stroke-linecap:butt;stroke-linejoin:miter;stroke-opacity:1" />
    <path
       d="m 200,143.36218 0,-15.5"
       id="path7010"
       style="fill:none;stroke:#5061ee;stroke-width:1px;stroke-linecap:butt;stroke-linejoin:miter;stroke-opacity:1" />
    <path
       d="m 130,143.36218 -53.5,0"
       id="path7012"
       style="fill:none;stroke:#5061ee;stroke-width:1px;stroke-linecap:butt;stroke-linejoin:miter;stroke-opacity:1" />
    <path
       d="m 130,213.36218 -15,0"
       id="path7014"
       style="fill:none;stroke:#5061ee;stroke-width:1px;stroke-linecap:butt;stroke-linejoin:miter;stroke-opacity:1" />
    <path
       d="m 130,353.36218 -33.5,0"
       id="path7016"
       style="fill:none;stroke:#5061ee;stroke-width:1px;stroke-linecap:butt;stroke-linejoin:miter;stroke-opacity:1" />
    <path
       d="m 130,563.36218 -52.5,0"
       id="path7018"
       style="fill:none;stroke:#5061ee;stroke-width:1px;stroke-linecap:butt;stroke-linejoin:miter;stroke-opacity:1" />
    <path
       d="m 200.75406,248.35616 0,-104.47503 34.29467,0 34.29468,0 0,104.47503 0,104.47503 -34.29468,0 -34.29467,0 0,-104.47503 z"
       id="path7020"
       style="fill:#b7dee8;fill-opacity:1;stroke:none" />
    <path
       d="m 130.75048,178.35259 0,-34.47146 34.29468,0 34.29468,0 0,34.47146 0,34.47145 -34.29468,0 -34.29468,0 0,-34.47145 z"
       id="path7022"
       style="fill:#43a9c2;fill-opacity:1;stroke:none" />
    <path
       d="m 130.75048,248.35616 0,-34.47146 34.29468,0 34.29468,0 0,34.47146 0,34.47145 -34.29468,0 -34.29468,0 0,-34.47145 z"
       id="path7024"
       style="fill:#92cddc;fill-opacity:1;stroke:none" />
    <path
       d="m 130.75048,318.35973 0,-34.47145 34.29468,0 34.29468,0 0,34.47145 0,34.47146 -34.29468,0 -34.29468,0 0,-34.47146 z"
       id="path7026"
       style="fill:#92cddc;fill-opacity:1;stroke:none" />
    <path
       d="m 270.75763,248.35616 0,-104.47503 69.29646,0 69.29647,0 0,104.47503 0,104.47503 -69.29647,0 -69.29646,0 0,-104.47503 z"
       id="path7028"
       style="fill:#daeef3;fill-opacity:1;stroke:none" />
    <path
       d="m 270.75763,248.35616 0,-104.47503 69.29646,0 69.29647,0 0,104.47503 0,104.47503 -69.29647,0 -69.29646,0 0,-104.47503 z"
       id="path7030"
       style="fill:#daeef3;fill-opacity:1;stroke:none" />
    <path
       d="m 130.75048,458.36687 0,-104.47502 139.30004,0 139.30004,0 0,104.47502 0,104.47503 -139.30004,0 -139.30004,0 0,-104.47503 z"
       id="path7032"
       style="fill:#ffffff;fill-opacity:1;stroke:none" />
    <text
       x="136.71704"
       y="188.74321"
       id="text6033"
       xml:space="preserve"
       style="font-size:12px;font-style:normal;font-variant:normal;font-weight:normal;font-stretch:normal;text-align:start;line-height:125%;letter-spacing:0px;word-spacing:0px;writing-mode:lr-tb;text-anchor:start;fill:#000000;fill-opacity:1;stroke:none;font-family:Sans;-inkscape-font-specification:Sans"><tspan
         x="136.71704"
         y="188.74321"
         id="tspan6035"
         style="font-size:28px;font-style:normal;font-variant:normal;font-weight:normal;font-stretch:normal;text-align:start;line-height:125%;writing-mode:lr-tb;text-anchor:start;fill:#ffffff;fill-opacity:1;font-family:Sans;-inkscape-font-specification:Sans">24K</tspan></text>
  </g>
</svg>
